<?xml version="1.0" encoding="UTF-8" standalone="no"?>
<!-- Generator: Adobe Illustrator 16.0.2, SVG Export Plug-In . SVG Version: 6.00 Build 0)  -->
<!DOCTYPE svg  PUBLIC '-//W3C//DTD SVG 1.1//EN'  'http://www.w3.org/Graphics/SVG/1.1/DTD/svg11.dtd'>
<svg id="Layer_1" style="enable-background:new 0 0 204 32" xmlns="http://www.w3.org/2000/svg" xml:space="preserve" height="32px" viewBox="0 0 204 32" width="204px" version="1.1" y="0px" x="0px" xmlns:xlink="http://www.w3.org/1999/xlink">
<style type="text/css">
<![CDATA[
	.st0{fill:#231F20;}
	.st1{fill:url(#SVGID_1_);}
	.st2{fill:url(#SVGID_2_);}
	.st3{fill:url(#SVGID_3_);}
	.st4{fill:url(#SVGID_4_);}
	.st5{fill:url(#SVGID_5_);}
	.st6{fill:url(#SVGID_6_);}
]]>
</style>
		<path class="st0" d="m35.7 17.4v1.7c0 3.7 0 9.3 9.1 9.3 1.6 0 3.8 0 8-1v-3.7h-1.1l-3.9 1h-1.8c-6 0-6 0-6-5.9v-1c0-5.9 0-5.9 6-5.9h1.8l3.9 1h1.1v-3.7c-4.1-1-6.3-1-8-1-9.1 0-9.1 5.5-9.1 9.2z"/>
		<path class="st0" d="m65.7 8.2h-1.9c-8.8 0-8.6 6-8.6 9.3v1.5c0 3.2-0.2 9.2 8.6 9.2h1.9c8.8 0 8.6-6 8.6-9.2v-1.6c0-3.2 0.2-9.2-8.6-9.2zm4.7 10.4c0 6 0 6-5.6 6s-5.6 0-5.6-6v-0.6c0-6 0-6 5.6-6s5.6 0 5.6 6v0.6z"/>
		<path class="st0" d="m89.6 23.6c-0.7-2.3-1-3.1-5.3-14.9h-6.8v19.2h3.8v-15.6h0.6c0.4 1.3 1 2.9 5.6 15.6h4.2c4.7-12.5 5.2-14.1 5.7-15.6h0.6v15.6h3.8v-19.2h-6.9c-3.7 10.2-4.7 12.7-5.3 14.9z"/>
		<path class="st0" d="m112 8.7h-7v19.2h3.7v-5.3h3.3c1.6 0 3.7 0 5-0.1 3.3-0.4 4.8-1.8 4.8-6.8 0-5.1-1.5-6.4-4.9-6.8-1.3-0.2-3.4-0.2-4.9-0.2zm2 10.5h-5.3v-7.1h5.3c3.7 0 3.8 0.1 3.8 3.7-0.1 3.5-0.2 3.4-3.8 3.4z"/>
		<path class="st0" d="m128.4 8.7l-7.1 17.9v1.3h3.8l1.8-4.5h10l1.8 4.5h3.8v-1.3l-7.1-17.9h-7zm-0.4 11.4c1.2-3.4 2.3-6.5 2.8-7.9h2c0.5 1.4 2.2 6.1 2.8 7.9h-7.6z"/>
		<polygon points="140.5 12.1 147.6 12.1 147.6 27.9 151.5 27.9 151.5 12.1 158.7 12.1 158.7 8.7 140.5 8.7" class="st0"/>
		<rect y="8.7" x="161.3" height="19.2" class="st0" width="4.3"/>
		<path class="st0" d="m183.3 17.3c1.2-0.6 1.6-1.8 1.6-3.1v-0.4c0-3.4-2.1-4.9-5-5-0.4 0-1.8-0.1-1.8-0.1h-5.6-3.9v19.2h12c0.2 0 0.8 0 1.2-0.1 1.7-0.3 4.7-1.5 4.7-5.6 0-2.5-1.2-4-3.2-4.9zm-10.8-5.2h6.9c1.1 0 1.5 0.9 1.5 2.1s-0.4 2-1.7 2h-6.7v-4.1zm7.2 12.4h-7.3v-4.8h7.3c2.5 0 2.6 1.3 2.6 2.5 0.1 1.4 0 2.3-2.6 2.3z"/>
		<polygon points="193 24.5 193 8.7 189 8.7 189 28.1 203 28.1 203 24.5" class="st0"/>
		<linearGradient id="SVGID_1_" y2="12.952" gradientUnits="userSpaceOnUse" x2="19.292" y1="28.814" x1="3.4292">
			<stop stop-color="#71B5DE" offset="0"/>
			<stop stop-color="#276FA0" offset="1"/>
		</linearGradient>
		<path class="st1" d="m12.3 10.8c9.4 0 9.4 7 9.4 9.3v1.6c0 2.3 0 9.3-9.4 9.3h-1.9c-9.4 0-9.4-7-9.4-9.3v-1.6c0-2.3 0-9.3 9.4-9.3h1.9zm-6.1 9.8v0.6c0 5.2 0 5.2 5.2 5.2s5.2 0 5.2-5.2v-0.6c0-5.2 0-5.2-5.2-5.2s-5.2 0-5.2 5.2z"/>
		<linearGradient id="SVGID_2_" y2="13.766" gradientUnits="userSpaceOnUse" x2="14.762" y1="14.284" x1="16.693">
			<stop stop-color="#2C72A0" stop-opacity="0" offset="0"/>
			<stop stop-color="#29709F" stop-opacity=".6308" offset=".6308"/>
			<stop stop-color="#266C9D" offset="1"/>
		</linearGradient>
		<path class="st2" d="m15.6 15.8s-0.4-1.9-0.4-2.5v-2.2s0.2-0.1 1.6 0.4c0 0-0.3 2.2-0.5 5.6 0.1 0 0.1-1.2-0.7-1.3z"/>
		<linearGradient id="SVGID_3_" y2="19.032" gradientUnits="userSpaceOnUse" x2="12.485" y1="3.1787" x1="28.339">
			<stop stop-color="#71B5DE" offset="0"/>
			<stop stop-color="#276FA0" offset="1"/>
		</linearGradient>
		<path class="st3" d="m16.1 16.1c0.7 0.5 0.5 4.8 0.5 4.8-6.5-1.3-6.5-7.1-6.5-9.1v-1.6c-0.1-2.2-0.1-9.2 9.3-9.2h1.9c9.4 0 9.4 7 9.4 9.3v1.6c0 2.2 0 9.1-9.1 9.3 0 0 0.1-2.5-0.3-4.6 4.1-0.1 4.2-0.4 4.2-5.2v-0.6c0-5.2 0-5.2-5.2-5.2s-5.2 0-5.2 5.2v0.6c0.1 2.9 0.1 4.2 1 4.7z"/>
			<linearGradient id="SVGID_4_" y2="153.36" gradientUnits="userSpaceOnUse" x2="-89.119" gradientTransform="matrix(-1 0 0 -1 -67.66 172.33)" y1="153.56" x1="-91.209">
			<stop stop-color="#468EBE" stop-opacity="0" offset="0"/>
			<stop stop-color="#2A6B96" offset="1"/>
		</linearGradient>
		<path class="st4" d="m21.7 21.2s-0.1-2-0.1-2.4c0-0.6-0.2-1.8-0.3-2.2 0 0 1.4 0 1.8-0.1 0 0 0.4 4.1 0.3 4.6 0.1 0-0.7 0.1-1.7 0.1z"/>
		<linearGradient id="SVGID_5_" y2="18.078" gradientUnits="userSpaceOnUse" x2="16.854" y1="17.612" x1="15.119">
			<stop stop-color="#3177A6" stop-opacity="0" offset="0"/>
			<stop stop-color="#2F76A5" stop-opacity=".092977" offset=".092977"/>
			<stop stop-color="#266C9C" offset="1"/>
		</linearGradient>
		<path class="st5" d="m16.2 16s0.4 1.5 0.4 2.7v2.3s-0.3 0-1.7-0.5c0 0 0.5-2.4 0.5-5.8 0 0-0.1 0.8 0.8 1.3z"/>
		<linearGradient id="SVGID_6_" y2="13.097" gradientUnits="userSpaceOnUse" x2="10.387" y1="13.097" x1="8.2778">
			<stop stop-color="#468EBE" stop-opacity="0" offset="0"/>
			<stop stop-color="#2A6B96" offset="1"/>
		</linearGradient>
		<path class="st6" d="m10 10.8v2.4c0 0.2 0.2 1.9 0.3 2.2h-1.8s-0.4-4.1-0.3-4.5c0.1 0 0.8-0.1 1.8-0.1z"/>
</svg>
